<?xml version="1.0" encoding="utf-8"?>
<!-- Generator: Adobe Illustrator 25.4.1, SVG Export Plug-In . SVG Version: 6.00 Build 0)  -->
<svg version="1.1" xmlns="http://www.w3.org/2000/svg" xmlns:xlink="http://www.w3.org/1999/xlink" x="0px" y="0px"
	 viewBox="0 0 307.8 86.25" style="enable-background:new 0 0 307.8 86.25;" xml:space="preserve">
<style type="text/css">
	.st0{display:none;fill:none;stroke:#000000;stroke-miterlimit:10;}
	.st1{fill:#F5BD02;}
	.st2{fill:#FFFFFF;}
	.st3{display:none;}
	.st4{fill:#61C5E6;}
	.st5{fill:none;stroke:#FFFFFF;stroke-miterlimit:10;}
	.st6{fill:#12100B;}
</style>
<g id="Warstwa_1">
	<polygon id="XMLID_1_" class="st0" points="-665.19,389.76 -730.7,324.25 -730.7,231.61 -665.19,166.1 -572.55,166.1 
		-507.04,231.61 -507.04,324.25 -572.55,389.76 	"/>
	<rect id="XMLID_2_" x="-916.7" y="114.51" class="st1" width="193.17" height="193.17"/>
	<polyline id="XMLID_8_" class="st0" points="-730.7,324.25 -665.19,389.76 -665.19,296.58 -665.19,221.76 	"/>
	<polyline id="XMLID_3_" class="st0" points="-619.79,277.55 -572.55,297.12 -572.55,389.76 -572.55,220.1 	"/>
	<polyline id="XMLID_6_" class="st0" points="-665.19,103.1 -665.19,166.1 -730.7,231.61 -730.7,323.5 -665.19,389.76 
		-665.19,296.58 -619.79,277.55 -572.55,297.12 -572.55,389.76 -507.04,324.25 -507.04,231.61 -572.55,166.1 -572.55,103.1 
		-665.19,103.1 -665.19,166.1 -730.7,231.61 -507.04,324.25 -507.04,231.61 -732.54,324.25 	"/>
</g>
<g id="Warstwa_2">
	<path id="XMLID_60_" class="st2" d="M-846.52,114.51v18.57c0,11.09-4.41,21.73-12.25,29.58l-25.08,25.08v52.36l34.97,35.38
		c0.86,0.87,2.35,0.26,2.35-0.97v-38.35l26.13-22.13l26.66,22.44v38.07c0,1.23,1.48,1.84,2.35,0.97l34.98-34.98v-52.79l-25.08-25.08
		c-7.84-7.84-12.25-18.48-12.25-29.58v-18.57H-846.52z"/>
	<rect id="XMLID_59_" x="-826.6" y="260.24" class="st2" width="12.96" height="17.61"/>
</g>
<g id="Warstwa_3">
	<rect id="XMLID_4_" x="-919.37" y="314.68" style="fill:none;" width="251.33" height="120"/>
	
		<text id="XMLID_5_" transform="matrix(1.03 0 0 1 -919.3708 369.2579)" style="font-family:'Impact'; font-size:69px; letter-spacing:5.83;">KRISS</text>
</g>
<g id="Warstwa_5">
	<rect id="XMLID_54_" x="-918.08" y="382.1" style="fill:none;" width="199.54" height="66"/>
	
		<text id="XMLID_53_" transform="matrix(1.34 0 0 1 -918.0793 394.8468)" style="font-family:'Roboto-Medium'; font-size:17px; letter-spacing:16.42;">SERWIS</text>
</g>
<g id="Warstwa_6" class="st3">
</g>
<g id="Warstwa_7">
	<rect x="-655.96" y="487.72" class="st1" width="433.45" height="155.6"/>
	<rect id="XMLID_21_" x="-667.01" y="111.07" class="st4" width="193.17" height="193.17"/>
	<path id="XMLID_19_" class="st2" d="M-596.82,111.07v18.57c0,11.09-4.41,21.73-12.25,29.58l-25.08,25.08v52.36l34.97,35.38
		c0.86,0.87,2.35,0.26,2.35-0.97v-38.35l26.13-22.13l26.66,22.44v38.07c0,1.23,1.48,1.84,2.35,0.97l34.98-34.98v-52.79l-25.08-25.08
		c-7.84-7.84-12.25-18.48-12.25-29.58v-18.57H-596.82z"/>
	<rect id="XMLID_17_" x="-576.91" y="256.8" class="st2" width="12.96" height="17.61"/>
	<rect id="XMLID_22_" x="-669.68" y="311.23" style="fill:none;" width="251.33" height="120"/>
	
		<text id="XMLID_10_" transform="matrix(1.03 0 0 1 -669.677 365.8102)" style="font-family:'Impact'; font-size:69px; letter-spacing:5.83;">KRISS</text>
	<rect id="XMLID_20_" x="-668.39" y="378.65" style="fill:none;" width="199.54" height="66"/>
	<rect id="XMLID_16_" x="-667.01" y="111.07" class="st4" width="193.17" height="193.17"/>
	<path id="XMLID_15_" class="st2" d="M-596.82,111.07v18.57c0,11.09-4.41,21.73-12.25,29.58l-25.08,25.08v52.36l34.97,35.38
		c0.86,0.87,2.35,0.26,2.35-0.97v-38.35l26.13-22.13l26.66,22.44v38.07c0,1.23,1.48,1.84,2.35,0.97l34.98-34.98v-52.79l-25.08-25.08
		c-7.84-7.84-12.25-18.48-12.25-29.58v-18.57H-596.82z"/>
	<rect id="XMLID_14_" x="-576.91" y="256.8" class="st2" width="12.96" height="17.61"/>
	<rect id="XMLID_23_" x="-669.68" y="311.23" style="fill:none;" width="251.33" height="120"/>
	
		<text id="XMLID_13_" transform="matrix(1.03 0 0 1 -669.677 365.8102)" style="font-family:'Impact'; font-size:69px; letter-spacing:5.83;">KRISS</text>
	<rect id="XMLID_18_" x="-668.39" y="378.65" style="fill:none;" width="199.54" height="66"/>
	
		<text id="XMLID_12_" transform="matrix(1.34 0 0 1 -668.3854 391.3991)" style="font-family:'Roboto-Thin'; font-size:17px; letter-spacing:16.42;">SERWIS</text>
	<path id="XMLID_00000074438740582517985030000010996408092576091550_" class="st2" d="M-840.97,494.6v19.99
		c0,11.94-4.74,23.39-13.18,31.83l-26.98,26.98v56.34l37.63,38.07c0.93,0.94,2.53,0.28,2.53-1.04V625.5l28.12-23.82l28.68,24.14
		v40.97c0,1.32,1.6,1.98,2.53,1.05L-744,630.2V573.4l-26.98-26.98c-8.44-8.44-13.18-19.89-13.18-31.83V494.6H-840.97z"/>
	
		<rect id="XMLID_00000056397333256312924220000003673174063695783553_" x="-819.54" y="651.42" class="st2" width="13.95" height="18.95"/>
	
		<rect id="XMLID_00000147187369782798941250000018339734748977477292_" x="-917.98" y="782.54" style="fill:none;" width="214.73" height="13.9"/>
	
		<rect id="XMLID_00000146477178857124881910000005381015614564951738_" x="-916.24" y="487.72" class="st1" width="207.6" height="214.74"/>
	<path id="XMLID_00000168811498848815903810000002048977046044289722_" class="st2" d="M-840.97,487.72v20.15
		c0,12.04-4.74,23.58-13.18,32.09l-26.98,27.21v56.81l37.63,38.38c0.93,0.95,2.53,0.28,2.53-1.05v-41.6l28.12-24.01l28.68,24.34
		v41.3c0,1.33,1.6,2,2.53,1.06l37.64-37.95v-57.27l-26.98-27.21c-8.44-8.51-13.18-20.05-13.18-32.09v-20.15H-840.97z"/>
	
		<rect id="XMLID_00000119839720542125933030000010581184476606728854_" x="-819.54" y="645.97" class="st2" width="13.95" height="18.95"/>
	
		<rect id="XMLID_00000106853100491334339110000007632432869051310263_" x="-919.37" y="710" style="fill:none;" width="212.98" height="59.99"/>
	
		<text id="XMLID_00000088120254143993154340000012474166219416054409_" transform="matrix(1.03 0 0 1 -919.3705 768.7277)" style="font-family:'Impact'; font-size:74.2508px; letter-spacing:6.8;">KRISS</text>
	
		<rect id="XMLID_00000109709013741854450010000010756004170872484020_" x="-917.98" y="782.54" style="fill:none;" width="214.73" height="13.9"/>
	
		<text id="XMLID_00000021831605193426135780000013781927353438460552_" transform="matrix(1.34 0 0 1 -917.9808 796.2638)" style="font-family:'Roboto-Thin'; font-size:18.2937px; letter-spacing:17.91;">SERWIS</text>
	
		<rect id="XMLID_00000054960720392837366910000015216975181968898484_" x="-576.91" y="930.25" class="st2" width="12.96" height="17.61"/>
	
		<rect id="XMLID_00000090257823391181655630000018386103164805574333_" x="-576.91" y="930.25" class="st2" width="12.96" height="17.61"/>
	
		<rect id="XMLID_00000038410560860517756810000001066234769040321720_" x="-496.7" y="599.52" style="fill:none;" width="211.08" height="69.82"/>
	<path id="XMLID_00000119835873427637098390000004454854517784624278_" class="st2" d="M-567.69,527.93v8.2
		c0,4.9-1.95,9.59-5.41,13.05l-11.07,11.07v23.11l15.44,15.61c0.38,0.39,1.04,0.12,1.04-0.43v-16.93l11.53-9.77l11.76,9.9v16.8
		c0,0.54,0.65,0.81,1.04,0.43l15.44-15.44v-23.3l-11.07-11.07c-3.46-3.46-5.41-8.16-5.41-13.05v-8.2H-567.69z"/>
	
		<rect id="XMLID_00000016792594789977531330000005649432699891323068_" x="-558.9" y="592.25" class="st2" width="5.72" height="7.77"/>
	
		<rect id="XMLID_00000046319151641724952640000002434249715713773232_" x="-598.67" y="527.93" class="st5" width="85.26" height="85.26"/>
	<path id="XMLID_00000016071592217911325540000014348941834897625479_" class="st2" d="M-567.69,527.35v8.26
		c0,4.94-1.95,9.67-5.41,13.16l-11.07,11.16v23.3l15.44,15.74c0.38,0.39,1.04,0.12,1.04-0.43v-17.06l11.53-9.85l11.76,9.98v16.94
		c0,0.55,0.65,0.82,1.04,0.43l15.44-15.56v-23.49l-11.07-11.16c-3.46-3.49-5.41-8.23-5.41-13.16v-8.26H-567.69z"/>
	
		<rect id="XMLID_00000085243163593369498070000013352355007680838587_" x="-558.9" y="592.25" class="st2" width="5.72" height="7.77"/>
	
		<rect id="XMLID_00000041986895836454386070000009844121915950527639_" x="-498.06" y="680.23" style="fill:none;" width="212.45" height="126.94"/>
	
		<text id="XMLID_00000088818370530939406860000008170722349386491298_" transform="matrix(1.03 0 0 1 -498.0637 737.9689)" style="font-family:'Impact'; font-size:72.9901px; letter-spacing:6.8;">KRISS</text>
	
		<rect id="XMLID_00000013915321677367748610000014579634075155353251_" x="-496.7" y="751.55" style="fill:none;" width="211.08" height="69.82"/>
	
		<rect id="XMLID_00000139283149732603305890000016649351105803294108_" x="-496.7" y="751.55" style="fill:none;" width="211.08" height="69.82"/>
	
		<text id="XMLID_00000168803794206674720330000008369692730329537442_" transform="matrix(1.34 0 0 1 -496.6974 765.0363)" style="font-family:'Roboto-Thin'; font-size:17.9831px; letter-spacing:17.91;">SERWIS</text>
	<path id="XMLID_00000158013993765798818570000009544602794076382386_" class="st2" d="M-567.69,680.82v8.2
		c0,4.9-1.95,9.59-5.41,13.05l-11.07,11.07v23.11l15.44,15.61c0.38,0.39,1.04,0.12,1.04-0.43v-16.93l11.53-9.77l11.76,9.9v16.8
		c0,0.54,0.65,0.81,1.04,0.43l15.44-15.44v-23.3l-11.07-11.07c-3.46-3.46-5.41-8.16-5.41-13.05v-8.2H-567.69z"/>
	
		<rect id="XMLID_00000043437959169400725410000017284230568130836364_" x="-558.9" y="745.14" class="st2" width="5.72" height="7.77"/>
	
		<rect id="XMLID_00000087393111286408674750000017403153655494888112_" x="-598.67" y="680.23" class="st1" width="85.26" height="85.26"/>
	<path id="XMLID_00000026124988144974846370000004398790224160637357_" class="st2" d="M-567.69,680.23v8.26
		c0,4.94-1.95,9.67-5.41,13.16l-11.07,11.16v23.3l15.44,15.74c0.38,0.39,1.04,0.12,1.04-0.43v-17.06l11.53-9.85l11.76,9.98v16.94
		c0,0.55,0.65,0.82,1.04,0.43l15.44-15.56v-23.49l-11.07-11.16c-3.46-3.49-5.41-8.23-5.41-13.16v-8.26H-567.69z"/>
	
		<rect id="XMLID_00000074399860499342710250000016948384938129431175_" x="-558.9" y="745.14" class="st2" width="5.72" height="7.77"/>
	
		<rect id="XMLID_00000028306192441950157970000016911104149735104409_" x="-498.06" y="528.21" style="fill:none;" width="265.87" height="126.94"/>
	
		<text id="XMLID_00000011754237562144592730000003193180392828787877_" transform="matrix(1.03 0 0 1 -498.0637 585.9417)" class="st2" style="font-family:'Impact'; font-size:72.9901px; letter-spacing:6.8;">KRISS</text>
	
		<rect id="XMLID_00000090284369552928540990000004077273222493660558_" x="-496.7" y="599.52" style="fill:none;" width="211.08" height="69.82"/>
	
		<text id="XMLID_00000177442981756855057670000003899177016312277378_" transform="matrix(1.34 0 0 1 -496.6974 613.0101)" class="st2" style="font-family:'Roboto-Thin'; font-size:17.9831px; letter-spacing:17.91;">SERWIS</text>
	<g>
		<path d="M140.52,1.31l-8.87,26.05l9.71,31.65H125.4l-6.26-24.73v24.73h-15.45V1.31h15.45v22.42l6.88-22.42H140.52z"/>
		<path d="M151.17,1.31h10.94c7.29,0,12.23,0.27,14.81,0.82c2.58,0.55,4.69,1.94,6.31,4.19s2.44,5.83,2.44,10.75
			c0,4.49-0.58,7.51-1.73,9.05c-1.15,1.54-3.41,2.47-6.79,2.78c3.06,0.74,5.12,1.72,6.17,2.96s1.71,2.37,1.96,3.4
			s0.39,3.88,0.39,8.54v15.22h-14.35V39.83c0-3.09-0.25-5-0.75-5.74c-0.5-0.74-1.82-1.1-3.95-1.1v26.02h-15.45V1.31z M166.62,11.18
			v12.83c1.74,0,2.96-0.23,3.65-0.7c0.7-0.46,1.05-1.97,1.05-4.51v-3.17c0-1.83-0.34-3.03-1.01-3.6
			C169.64,11.46,168.41,11.18,166.62,11.18z"/>
		<path d="M214.26,1.31v57.7H198.8V1.31H214.26z"/>
		<path d="M260.35,18.77h-14.35v-4.28c0-2-0.18-3.27-0.55-3.81s-0.98-0.82-1.83-0.82c-0.93,0-1.63,0.37-2.11,1.11
			c-0.48,0.74-0.72,1.85-0.72,3.35c0,1.93,0.27,3.38,0.8,4.35c0.51,0.97,1.97,2.15,4.37,3.53c6.88,3.96,11.21,7.22,13,9.76
			c1.79,2.54,2.68,6.64,2.68,12.3c0,4.11-0.5,7.14-1.49,9.09c-0.99,1.95-2.91,3.58-5.75,4.9c-2.84,1.32-6.14,1.98-9.91,1.98
			c-4.14,0-7.67-0.76-10.59-2.28c-2.92-1.52-4.84-3.46-5.75-5.81c-0.91-2.35-1.36-5.69-1.36-10.01v-3.78h14.35v7.02
			c0,2.16,0.2,3.55,0.61,4.17c0.4,0.62,1.12,0.93,2.15,0.93c1.03,0,1.79-0.39,2.29-1.18c0.5-0.78,0.75-1.95,0.75-3.49
			c0-3.4-0.48-5.62-1.43-6.66c-0.98-1.05-3.39-2.79-7.23-5.24c-3.84-2.47-6.39-4.26-7.63-5.38c-1.25-1.12-2.28-2.66-3.1-4.63
			c-0.82-1.97-1.23-4.49-1.23-7.56c0-4.42,0.58-7.65,1.74-9.69c1.16-2.04,3.04-3.64,5.63-4.79s5.73-1.73,9.4-1.73
			c4.01,0,7.43,0.63,10.26,1.89c2.83,1.26,4.7,2.85,5.62,4.76c0.92,1.91,1.38,5.16,1.38,9.75V18.77z"/>
		<path d="M306.36,18.77h-14.35v-4.28c0-2-0.18-3.27-0.55-3.81s-0.98-0.82-1.83-0.82c-0.93,0-1.63,0.37-2.11,1.11
			c-0.48,0.74-0.72,1.85-0.72,3.35c0,1.93,0.27,3.38,0.8,4.35c0.51,0.97,1.97,2.15,4.37,3.53c6.88,3.96,11.21,7.22,13,9.76
			c1.79,2.54,2.68,6.64,2.68,12.3c0,4.11-0.5,7.14-1.49,9.09c-0.99,1.95-2.91,3.58-5.75,4.9c-2.84,1.32-6.14,1.98-9.91,1.98
			c-4.14,0-7.67-0.76-10.59-2.28c-2.92-1.52-4.84-3.46-5.75-5.81c-0.91-2.35-1.36-5.69-1.36-10.01v-3.78h14.35v7.02
			c0,2.16,0.2,3.55,0.61,4.17c0.4,0.62,1.12,0.93,2.15,0.93c1.03,0,1.79-0.39,2.29-1.18c0.5-0.78,0.75-1.95,0.75-3.49
			c0-3.4-0.48-5.62-1.43-6.66c-0.98-1.05-3.39-2.79-7.23-5.24c-3.84-2.47-6.39-4.26-7.63-5.38c-1.25-1.12-2.28-2.66-3.1-4.63
			c-0.82-1.97-1.23-4.49-1.23-7.56c0-4.42,0.58-7.65,1.74-9.69c1.16-2.04,3.04-3.64,5.63-4.79s5.73-1.73,9.4-1.73
			c4.01,0,7.43,0.63,10.26,1.89c2.83,1.26,4.7,2.85,5.62,4.76c0.92,1.91,1.38,5.16,1.38,9.75V18.77z"/>
	</g>
	<g>
		<path d="M114.58,83.01c0-0.54-0.17-1.01-0.51-1.38c-0.34-0.38-0.88-0.71-1.61-1c-0.73-0.29-1.84-0.59-3.32-0.89
			c-1.48-0.3-2.59-0.61-3.34-0.92s-1.29-0.67-1.63-1.08c-0.34-0.41-0.52-0.91-0.52-1.49c0-0.93,0.53-1.68,1.58-2.26
			c1.05-0.58,2.42-0.86,4.11-0.86c1.1,0,2.08,0.16,2.96,0.48c0.87,0.32,1.55,0.77,2.03,1.34c0.48,0.58,0.72,1.23,0.72,1.95h-0.64
			c0-0.95-0.47-1.74-1.41-2.37c-0.94-0.62-2.16-0.94-3.66-0.94c-1.51,0-2.72,0.25-3.65,0.75c-0.93,0.5-1.39,1.13-1.39,1.88
			c0,0.77,0.4,1.38,1.21,1.85c0.81,0.47,2.14,0.88,4,1.24s3.22,0.78,4.08,1.25c1.1,0.6,1.65,1.41,1.65,2.42
			c0,0.64-0.24,1.21-0.73,1.71c-0.49,0.49-1.18,0.88-2.07,1.15c-0.89,0.27-1.9,0.4-3.01,0.4c-1.24,0-2.35-0.15-3.34-0.46
			c-0.99-0.31-1.73-0.75-2.23-1.31c-0.5-0.57-0.75-1.24-0.75-2.01h0.63c0,1.05,0.53,1.86,1.58,2.44c1.05,0.58,2.42,0.87,4.11,0.87
			c1.5,0,2.73-0.26,3.71-0.77C114.09,84.5,114.58,83.83,114.58,83.01z"/>
		<path d="M151.94,79.74h-8.59v5.87h9.79v0.47h-10.42V73.29h10.42v0.47h-9.79v5.5h8.59V79.74z"/>
		<path d="M187.1,80.6h-5.94v5.47h-0.64V73.29h5.46c1.72,0,3.08,0.33,4.1,0.99c1.02,0.66,1.52,1.56,1.52,2.7
			c0,0.87-0.36,1.63-1.09,2.29c-0.73,0.65-1.65,1.06-2.77,1.22l4.58,5.47v0.12h-0.67L187.1,80.6z M181.16,80.13h5.4
			c1.32,0,2.38-0.3,3.2-0.9c0.81-0.6,1.22-1.35,1.22-2.26c0-1-0.45-1.78-1.35-2.35c-0.9-0.57-2.13-0.86-3.69-0.86h-4.78V80.13z"/>
		<path d="M223.89,85.29l0.78-2.11l4.05-9.89h0.71l4.02,9.89l0.76,2.11l0.8-2.11l3.53-9.89h0.69l-4.61,12.79h-0.72l-4.25-10.66
			l-0.6-1.35l-0.58,1.35l-4.28,10.66h-0.72l-4.62-12.79h0.71l3.55,9.89L223.89,85.29z"/>
		<path d="M267.57,86.08h-0.63V73.29h0.63V86.08z"/>
		<path d="M307.15,83.01c0-0.54-0.17-1.01-0.51-1.38c-0.34-0.38-0.88-0.71-1.61-1c-0.73-0.29-1.84-0.59-3.32-0.89
			c-1.48-0.3-2.59-0.61-3.34-0.92s-1.29-0.67-1.63-1.08c-0.34-0.41-0.52-0.91-0.52-1.49c0-0.93,0.53-1.68,1.58-2.26
			c1.05-0.58,2.42-0.86,4.11-0.86c1.1,0,2.08,0.16,2.96,0.48c0.87,0.32,1.55,0.77,2.03,1.34c0.48,0.58,0.72,1.23,0.72,1.95h-0.64
			c0-0.95-0.47-1.74-1.41-2.37c-0.94-0.62-2.16-0.94-3.66-0.94c-1.51,0-2.72,0.25-3.65,0.75c-0.93,0.5-1.39,1.13-1.39,1.88
			c0,0.77,0.4,1.38,1.21,1.85c0.81,0.47,2.14,0.88,4,1.24s3.22,0.78,4.08,1.25c1.1,0.6,1.65,1.41,1.65,2.42
			c0,0.64-0.24,1.21-0.73,1.71c-0.49,0.49-1.18,0.88-2.07,1.15c-0.89,0.27-1.9,0.4-3.01,0.4c-1.24,0-2.35-0.15-3.34-0.46
			c-0.99-0.31-1.73-0.75-2.23-1.31c-0.5-0.57-0.75-1.24-0.75-2.01h0.63c0,1.05,0.53,1.86,1.58,2.44c1.05,0.58,2.42,0.87,4.11,0.87
			c1.5,0,2.73-0.26,3.71-0.77C306.67,84.5,307.15,83.83,307.15,83.01z"/>
	</g>
	<rect id="XMLID_00000073713013424329141500000016326414372915913399_" class="st1" width="86.25" height="86.25"/>
	<path id="XMLID_00000169539730352995581610000004452767860556215221_" class="st2" d="M31.34,0v8.36c0,4.99-1.97,9.78-5.47,13.32
		l-11.2,11.29v23.57l15.62,15.93c0.39,0.39,1.05,0.12,1.05-0.44V54.76l11.67-9.96l11.9,10.1v17.14c0,0.55,0.66,0.83,1.05,0.44
		l15.62-15.75V32.97l-11.2-11.29c-3.5-3.53-5.47-8.32-5.47-13.32V0H31.34z"/>
	
		<rect id="XMLID_00000110451053446764763670000013814349495612689305_" x="40.23" y="66.51" class="st2" width="5.79" height="7.87"/>
</g>
<g id="Warstwa_8">
	<rect id="XMLID_31_" x="-415.68" y="111.07" class="st6" width="193.17" height="193.17"/>
	<path id="XMLID_30_" class="st2" d="M-345.49,111.07v18.57c0,11.09-4.41,21.73-12.25,29.58l-25.08,25.08v52.36l34.97,35.38
		c0.86,0.87,2.35,0.26,2.35-0.97v-38.35l26.13-22.13l26.66,22.44v38.07c0,1.23,1.48,1.84,2.35,0.97l34.98-34.98v-52.79l-25.08-25.08
		c-7.84-7.84-12.25-18.48-12.25-29.58v-18.57H-345.49z"/>
	<rect id="XMLID_29_" x="-325.58" y="256.8" class="st2" width="12.96" height="17.61"/>
	<rect id="XMLID_28_" x="-418.34" y="313.9" style="fill:none;" width="251.33" height="120"/>
	
		<text id="XMLID_27_" transform="matrix(1.03 0 0 1 -418.3436 368.4769)" style="font-family:'Impact'; font-size:69px; letter-spacing:5.83;">KRISS</text>
	<rect id="XMLID_26_" x="-417.05" y="378.65" style="fill:none;" width="199.54" height="66"/>
	
		<text id="XMLID_25_" transform="matrix(1.34 0 0 1 -417.0521 391.3991)" style="font-family:'Roboto-Light'; font-size:17px; letter-spacing:16.42;">SERWIS</text>
</g>
</svg>
