<?xml version="1.0" encoding="utf-8"?>
<!-- Generator: Adobe Illustrator 25.4.1, SVG Export Plug-In . SVG Version: 6.00 Build 0)  -->
<svg version="1.1" xmlns="http://www.w3.org/2000/svg" xmlns:xlink="http://www.w3.org/1999/xlink" x="0px" y="0px"
	 viewBox="0 0 307.8 86.25" style="enable-background:new 0 0 307.8 86.25;" xml:space="preserve">
<style type="text/css">
	.st0{display:none;fill:none;stroke:#000000;stroke-miterlimit:10;}
	.st1{fill:#F5BD02;}
	.st2{fill:#FFFFFF;}
	.st3{display:none;}
	.st4{fill:#61C5E6;}
	.st5{fill:none;stroke:#FFFFFF;stroke-miterlimit:10;}
	.st6{fill:#12100B;}
</style>
<g id="Warstwa_1">
</g>
<g id="Warstwa_2">
</g>
<g id="Warstwa_3">
</g>
<g id="Warstwa_5">
</g>
<g id="Warstwa_6" class="st3">
</g>
<g id="Warstwa_7">
	<g>
		<path d="M140.52,1.29l-8.87,26.05l9.71,31.65H125.4l-6.26-24.73v24.73h-15.45V1.29h15.45v22.42l6.88-22.42H140.52z"/>
		<path d="M151.17,1.29h10.94c7.29,0,12.23,0.27,14.81,0.82c2.58,0.55,4.69,1.94,6.31,4.19s2.44,5.83,2.44,10.75
			c0,4.49-0.58,7.51-1.73,9.05c-1.15,1.54-3.41,2.47-6.79,2.78c3.06,0.74,5.12,1.72,6.17,2.96s1.71,2.37,1.96,3.4
			s0.39,3.88,0.39,8.54v15.22h-14.35V39.82c0-3.09-0.25-5-0.75-5.74c-0.5-0.74-1.82-1.1-3.95-1.1v26.02h-15.45V1.29z M166.62,11.16
			v12.83c1.74,0,2.96-0.23,3.65-0.7c0.7-0.46,1.05-1.97,1.05-4.51v-3.17c0-1.83-0.34-3.03-1.01-3.6
			C169.64,11.45,168.41,11.16,166.62,11.16z"/>
		<path d="M214.26,1.29v57.7H198.8V1.29H214.26z"/>
		<path d="M260.35,18.75h-14.35v-4.28c0-2-0.18-3.27-0.55-3.81s-0.98-0.82-1.83-0.82c-0.93,0-1.63,0.37-2.11,1.11
			c-0.48,0.74-0.72,1.85-0.72,3.35c0,1.93,0.27,3.38,0.8,4.35c0.51,0.97,1.97,2.15,4.37,3.53c6.88,3.96,11.21,7.22,13,9.76
			c1.79,2.54,2.68,6.64,2.68,12.3c0,4.11-0.5,7.14-1.49,9.09c-0.99,1.95-2.91,3.58-5.75,4.9c-2.84,1.32-6.14,1.98-9.91,1.98
			c-4.14,0-7.67-0.76-10.59-2.28c-2.92-1.52-4.84-3.46-5.75-5.81c-0.91-2.35-1.36-5.69-1.36-10.01v-3.78h14.35v7.02
			c0,2.16,0.2,3.55,0.61,4.17c0.4,0.62,1.12,0.93,2.15,0.93c1.03,0,1.79-0.39,2.29-1.18c0.5-0.78,0.75-1.95,0.75-3.49
			c0-3.4-0.48-5.62-1.43-6.66c-0.98-1.05-3.39-2.79-7.23-5.24c-3.84-2.47-6.39-4.26-7.63-5.38c-1.25-1.12-2.28-2.66-3.1-4.63
			c-0.82-1.97-1.23-4.49-1.23-7.56c0-4.42,0.58-7.65,1.74-9.69c1.16-2.04,3.04-3.64,5.63-4.79s5.73-1.73,9.4-1.73
			c4.01,0,7.43,0.63,10.26,1.89c2.83,1.26,4.7,2.85,5.62,4.76c0.92,1.91,1.38,5.16,1.38,9.75V18.75z"/>
		<path d="M306.36,18.75h-14.35v-4.28c0-2-0.18-3.27-0.55-3.81s-0.98-0.82-1.83-0.82c-0.93,0-1.63,0.37-2.11,1.11
			c-0.48,0.74-0.72,1.85-0.72,3.35c0,1.93,0.27,3.38,0.8,4.35c0.51,0.97,1.97,2.15,4.37,3.53c6.88,3.96,11.21,7.22,13,9.76
			c1.79,2.54,2.68,6.64,2.68,12.3c0,4.11-0.5,7.14-1.49,9.09c-0.99,1.95-2.91,3.58-5.75,4.9c-2.84,1.32-6.14,1.98-9.91,1.98
			c-4.14,0-7.67-0.76-10.59-2.28c-2.92-1.52-4.84-3.46-5.75-5.81c-0.91-2.35-1.36-5.69-1.36-10.01v-3.78h14.35v7.02
			c0,2.16,0.2,3.55,0.61,4.17c0.4,0.62,1.12,0.93,2.15,0.93c1.03,0,1.79-0.39,2.29-1.18c0.5-0.78,0.75-1.95,0.75-3.49
			c0-3.4-0.48-5.62-1.43-6.66c-0.98-1.05-3.39-2.79-7.23-5.24c-3.84-2.47-6.39-4.26-7.63-5.38c-1.25-1.12-2.28-2.66-3.1-4.63
			c-0.82-1.97-1.23-4.49-1.23-7.56c0-4.42,0.58-7.65,1.74-9.69c1.16-2.04,3.04-3.64,5.63-4.79s5.73-1.73,9.4-1.73
			c4.01,0,7.43,0.63,10.26,1.89c2.83,1.26,4.7,2.85,5.62,4.76c0.92,1.91,1.38,5.16,1.38,9.75V18.75z"/>
	</g>
	<g>
		<path d="M112.66,82.76c0-0.56-0.26-1-0.79-1.3c-0.53-0.3-1.48-0.61-2.87-0.92c-1.38-0.31-2.48-0.66-3.29-1.04
			c-1.56-0.73-2.34-1.69-2.34-2.86c0-1.03,0.56-1.88,1.69-2.55c1.12-0.67,2.59-1,4.38-1c1.19,0,2.25,0.16,3.19,0.49
			s1.67,0.79,2.2,1.4c0.53,0.61,0.8,1.28,0.8,2.02h-2.96c0-0.67-0.28-1.19-0.84-1.57c-0.56-0.38-1.36-0.57-2.41-0.57
			c-0.97,0-1.73,0.16-2.27,0.46c-0.54,0.31-0.81,0.74-0.81,1.3c0,0.47,0.29,0.86,0.87,1.17c0.58,0.31,1.54,0.62,2.87,0.91
			c1.33,0.29,2.4,0.63,3.21,1.01c0.81,0.38,1.4,0.81,1.78,1.3c0.38,0.49,0.57,1.06,0.57,1.72c0,1.07-0.55,1.91-1.64,2.54
			c-1.09,0.63-2.58,0.94-4.45,0.94c-1.24,0-2.38-0.17-3.42-0.51c-1.04-0.34-1.85-0.82-2.42-1.42c-0.58-0.6-0.86-1.31-0.86-2.11h2.98
			c0,0.73,0.32,1.29,0.96,1.69c0.64,0.4,1.56,0.6,2.76,0.6c1.04,0,1.81-0.16,2.34-0.47C112.4,83.69,112.66,83.28,112.66,82.76z"/>
		<path d="M152.41,80.35h-7.04v3.93h8.22v1.77h-11.2V73.27h11.12v1.79h-8.14v3.53h7.04V80.35z"/>
		<path d="M186.46,81.14h-3.32v4.92h-2.98V73.27h6.02c1.98,0,3.5,0.33,4.58,0.99c1.07,0.66,1.61,1.62,1.61,2.87
			c0,0.86-0.28,1.57-0.83,2.15c-0.55,0.58-1.32,1.02-2.31,1.33l3.85,5.32v0.11h-3.19L186.46,81.14z M183.14,79.35h3.06
			c1,0,1.79-0.19,2.35-0.57c0.56-0.38,0.85-0.89,0.85-1.55c0-0.69-0.26-1.21-0.78-1.59c-0.52-0.37-1.3-0.57-2.34-0.58h-3.14V79.35z"
			/>
		<path d="M232.79,82.9l2.64-9.62h2.95l-3.95,12.79h-2.85l-3.26-9.33l-3.33,9.33h-2.86l-3.95-12.79h2.95l2.66,9.61l3.27-9.61h2.49
			L232.79,82.9z"/>
		<path d="M267.84,86.06h-2.96V73.27h2.96V86.06z"/>
		<path d="M304.6,82.76c0-0.56-0.26-1-0.79-1.3c-0.53-0.3-1.48-0.61-2.87-0.92c-1.38-0.31-2.48-0.66-3.29-1.04
			c-1.56-0.73-2.34-1.69-2.34-2.86c0-1.03,0.56-1.88,1.69-2.55c1.12-0.67,2.59-1,4.38-1c1.19,0,2.25,0.16,3.19,0.49
			s1.67,0.79,2.2,1.4c0.53,0.61,0.8,1.28,0.8,2.02h-2.96c0-0.67-0.28-1.19-0.84-1.57c-0.56-0.38-1.36-0.57-2.41-0.57
			c-0.97,0-1.73,0.16-2.27,0.46c-0.54,0.31-0.81,0.74-0.81,1.3c0,0.47,0.29,0.86,0.87,1.17c0.58,0.31,1.54,0.62,2.87,0.91
			c1.33,0.29,2.4,0.63,3.21,1.01c0.81,0.38,1.4,0.81,1.78,1.3c0.38,0.49,0.57,1.06,0.57,1.72c0,1.07-0.55,1.91-1.64,2.54
			c-1.09,0.63-2.58,0.94-4.45,0.94c-1.24,0-2.38-0.17-3.42-0.51c-1.04-0.34-1.85-0.82-2.42-1.42c-0.58-0.6-0.86-1.31-0.86-2.11h2.98
			c0,0.73,0.32,1.29,0.96,1.69c0.64,0.4,1.56,0.6,2.76,0.6c1.04,0,1.81-0.16,2.34-0.47C304.34,83.69,304.6,83.28,304.6,82.76z"/>
	</g>
	<path id="XMLID_00000019643212530508882950000002279870228213312151_" class="st2" d="M31.31,0.68v8.29c0,4.95-1.97,9.7-5.47,13.19
		L14.66,33.34V56.7l15.6,15.78c0.39,0.39,1.05,0.12,1.05-0.43V54.94l11.66-9.87l11.89,10.01v16.98c0,0.55,0.66,0.82,1.05,0.43
		l15.6-15.6V33.34L60.33,22.16c-3.5-3.5-5.47-8.25-5.47-13.19V0.68H31.31z"/>
	
		<rect id="XMLID_00000043430614867116048370000007630641958126538162_" x="40.19" y="65.69" class="st2" width="5.78" height="7.86"/>
	<rect id="XMLID_00000087409070609977333220000013713493123137627033_" y="0.09" class="st1" width="86.17" height="86.17"/>
	<path id="XMLID_00000023271307264956846290000014736499823500272792_" class="st2" d="M31.31,0.09v8.35c0,4.99-1.97,9.77-5.47,13.3
		L14.66,33.02v23.55l15.6,15.91c0.39,0.39,1.05,0.12,1.05-0.44V54.8l11.66-9.95l11.89,10.09v17.12c0,0.55,0.66,0.83,1.05,0.44
		l15.6-15.73V33.02L60.33,21.74c-3.5-3.53-5.47-8.31-5.47-13.3V0.09H31.31z"/>
	
		<rect id="XMLID_00000162330013960640387930000001903769808377360296_" x="40.19" y="65.69" class="st2" width="5.78" height="7.86"/>
</g>
<g id="Warstwa_8">
</g>
</svg>
